<svg width="25" height="25" viewBox="0 0 25 25" fill="none" xmlns="http://www.w3.org/2000/svg">
<rect x="0.5" y="0.849609" width="24" height="24" rx="5" fill="#135589"/>
<path d="M13.5 23.8496V17.8496L11.4 15.8496L10.4 20.2496L3.5 18.8496L3.9 16.8496L8.7 17.8496L10.3 9.74961L8.5 10.4496V13.8496H6.5V9.14961L10.45 7.44961C11.0333 7.19961 11.4625 7.03711 11.7375 6.96211C12.0125 6.88711 12.2667 6.84961 12.5 6.84961C12.85 6.84961 13.175 6.94128 13.475 7.12461C13.775 7.30794 14.0167 7.54961 14.2 7.84961L15.2 9.44961C15.6333 10.1496 16.2208 10.7246 16.9625 11.1746C17.7042 11.6246 18.55 11.8496 19.5 11.8496V13.8496C18.4 13.8496 17.3708 13.6204 16.4125 13.1621C15.4542 12.7038 14.65 12.0996 14 11.3496L13.4 14.3496L15.5 16.3496V23.8496H13.5ZM14 6.34961C13.45 6.34961 12.9792 6.15378 12.5875 5.76211C12.1958 5.37044 12 4.89961 12 4.34961C12 3.79961 12.1958 3.32878 12.5875 2.93711C12.9792 2.54544 13.45 2.34961 14 2.34961C14.55 2.34961 15.0208 2.54544 15.4125 2.93711C15.8042 3.32878 16 3.79961 16 4.34961C16 4.89961 15.8042 5.37044 15.4125 5.76211C15.0208 6.15378 14.55 6.34961 14 6.34961Z" fill="#EBDE53"/>
</svg>
