<svg width="50" height="49" viewBox="0 0 50 49" fill="none" xmlns="http://www.w3.org/2000/svg">
<path d="M5 48.5C3.625 48.5 2.44792 48.0053 1.46875 47.0158C0.489583 46.0263 0 44.8368 0 43.4474V15.6579C0 14.2684 0.489583 13.0789 1.46875 12.0895C2.44792 11.1 3.625 10.6053 5 10.6053H15V5.55263C15 4.16316 15.4896 2.97368 16.4688 1.98421C17.4479 0.994737 18.625 0.5 20 0.5H30C31.375 0.5 32.5521 0.994737 33.5312 1.98421C34.5104 2.97368 35 4.16316 35 5.55263V10.6053H45C46.375 10.6053 47.5521 11.1 48.5312 12.0895C49.5104 13.0789 50 14.2684 50 15.6579V43.4474C50 44.8368 49.5104 46.0263 48.5312 47.0158C47.5521 48.0053 46.375 48.5 45 48.5H5ZM20 10.6053H30V5.55263H20V10.6053ZM10 15.6579H5V43.4474H10V15.6579ZM35 43.4474V15.6579H15V43.4474H35ZM40 15.6579V43.4474H45V15.6579H40Z" fill="black"/>
</svg>
