<svg width="24" height="25" viewBox="0 0 24 25" fill="none" xmlns="http://www.w3.org/2000/svg">
<rect y="0.849609" width="24" height="24" rx="5" fill="#135589"/>
<path d="M2 22.8496C2.48333 21.6163 2.80417 20.3454 2.9625 19.0371C3.12083 17.7288 3.21667 16.4163 3.25 15.0996C2.6 14.8496 2.0625 14.4329 1.6375 13.8496C1.2125 13.2663 1 12.5996 1 11.8496V9.84961C2.91667 9.21628 4.87083 8.24961 6.8625 6.94961C8.85417 5.64961 10.5667 4.28294 12 2.84961C13.4333 4.28294 15.1458 5.64961 17.1375 6.94961C19.1292 8.24961 21.0833 9.21628 23 9.84961V11.8496C23 12.5996 22.7875 13.2663 22.3625 13.8496C21.9375 14.4329 21.4 14.8496 20.75 15.0996C20.7833 16.4163 20.8792 17.7288 21.0375 19.0371C21.1958 20.3454 21.5167 21.6163 22 22.8496H2ZM5.9 9.84961H18.1C16.8 9.11628 15.6292 8.36211 14.5875 7.58711C13.5458 6.81211 12.6833 6.13294 12 5.54961C11.3167 6.13294 10.4542 6.81211 9.4125 7.58711C8.37083 8.36211 7.2 9.11628 5.9 9.84961ZM14.5 13.3496C14.9167 13.3496 15.2708 13.2038 15.5625 12.9121C15.8542 12.6204 16 12.2663 16 11.8496H13C13 12.2663 13.1458 12.6204 13.4375 12.9121C13.7292 13.2038 14.0833 13.3496 14.5 13.3496ZM9.5 13.3496C9.91667 13.3496 10.2708 13.2038 10.5625 12.9121C10.8542 12.6204 11 12.2663 11 11.8496H8C8 12.2663 8.14583 12.6204 8.4375 12.9121C8.72917 13.2038 9.08333 13.3496 9.5 13.3496ZM4.5 13.3496C4.91667 13.3496 5.27083 13.2038 5.5625 12.9121C5.85417 12.6204 6 12.2663 6 11.8496H3C3 12.2663 3.14583 12.6204 3.4375 12.9121C3.72917 13.2038 4.08333 13.3496 4.5 13.3496ZM4.65 20.8496H7.325C7.475 19.8496 7.59167 18.8579 7.675 17.8746C7.75833 16.8913 7.825 15.8996 7.875 14.8996C7.725 14.8163 7.575 14.7288 7.425 14.6371C7.275 14.5454 7.13333 14.4329 7 14.2996C6.75 14.5496 6.47917 14.7538 6.1875 14.9121C5.89583 15.0704 5.58333 15.1913 5.25 15.2746C5.21667 16.2246 5.15833 17.1621 5.075 18.0871C4.99167 19.0121 4.85 19.9329 4.65 20.8496ZM9.35 20.8496H14.65C14.5167 19.9329 14.4125 19.0163 14.3375 18.0996C14.2625 17.1829 14.2 16.2579 14.15 15.3246C13.7167 15.2913 13.3208 15.1871 12.9625 15.0121C12.6042 14.8371 12.2833 14.6079 12 14.3246C11.7167 14.6079 11.3875 14.8371 11.0125 15.0121C10.6375 15.1871 10.25 15.2913 9.85 15.3246C9.8 16.2579 9.7375 17.1829 9.6625 18.0996C9.5875 19.0163 9.48333 19.9329 9.35 20.8496ZM16.675 20.8496H19.35C19.15 19.9329 19.0083 19.0121 18.925 18.0871C18.8417 17.1621 18.7833 16.2246 18.75 15.2746C18.4167 15.1913 18.1 15.0704 17.8 14.9121C17.5 14.7538 17.2333 14.5496 17 14.2996C16.8667 14.4329 16.725 14.5454 16.575 14.6371C16.425 14.7288 16.275 14.8163 16.125 14.8996C16.175 15.8996 16.2458 16.8913 16.3375 17.8746C16.4292 18.8579 16.5417 19.8496 16.675 20.8496ZM19.5 13.3496C19.9167 13.3496 20.2708 13.2038 20.5625 12.9121C20.8542 12.6204 21 12.2663 21 11.8496H18C18 12.2663 18.1458 12.6204 18.4375 12.9121C18.7292 13.2038 19.0833 13.3496 19.5 13.3496Z" fill="#EBDE53"/>
</svg>
