<svg width="25" height="25" viewBox="0 0 25 25" fill="none" xmlns="http://www.w3.org/2000/svg">
<path d="M6.5 22.8496V13.6996C5.6 13.4663 4.875 12.9913 4.325 12.2746C3.775 11.5579 3.5 10.7496 3.5 9.84961V2.84961H5.5V8.84961H6.5V2.84961H8.5V8.84961H9.5V2.84961H11.5V9.84961C11.5 10.7496 11.225 11.5579 10.675 12.2746C10.125 12.9913 9.4 13.4663 8.5 13.6996V22.8496H6.5ZM16.5 22.8496V13.3246C15.6 13.0246 14.875 12.3954 14.325 11.4371C13.775 10.4788 13.5 9.39128 13.5 8.17461C13.5 6.69128 13.8917 5.43294 14.675 4.39961C15.4583 3.36628 16.4 2.84961 17.5 2.84961C18.6 2.84961 19.5417 3.37044 20.325 4.41211C21.1083 5.45378 21.5 6.71628 21.5 8.19961C21.5 9.41628 21.225 10.4996 20.675 11.4496C20.125 12.3996 19.4 13.0246 18.5 13.3246V22.8496H16.5Z" fill="#135589"/>
</svg>
