<svg width="25" height="25" viewBox="0 0 25 25" fill="none" xmlns="http://www.w3.org/2000/svg">
<path d="M4.5 22.8496V11.8496H2.5V5.84961H7.7C7.61667 5.69961 7.5625 5.54128 7.5375 5.37461C7.5125 5.20794 7.5 5.03294 7.5 4.84961C7.5 4.01628 7.79167 3.30794 8.375 2.72461C8.95833 2.14128 9.66667 1.84961 10.5 1.84961C10.8833 1.84961 11.2417 1.92044 11.575 2.06211C11.9083 2.20378 12.2167 2.39961 12.5 2.64961C12.7833 2.38294 13.0917 2.18294 13.425 2.04961C13.7583 1.91628 14.1167 1.84961 14.5 1.84961C15.3333 1.84961 16.0417 2.14128 16.625 2.72461C17.2083 3.30794 17.5 4.01628 17.5 4.84961C17.5 5.03294 17.4833 5.20378 17.45 5.36211C17.4167 5.52044 17.3667 5.68294 17.3 5.84961H22.5V11.8496H20.5V22.8496H4.5ZM14.5 3.84961C14.2167 3.84961 13.9792 3.94544 13.7875 4.13711C13.5958 4.32878 13.5 4.56628 13.5 4.84961C13.5 5.13294 13.5958 5.37044 13.7875 5.56211C13.9792 5.75378 14.2167 5.84961 14.5 5.84961C14.7833 5.84961 15.0208 5.75378 15.2125 5.56211C15.4042 5.37044 15.5 5.13294 15.5 4.84961C15.5 4.56628 15.4042 4.32878 15.2125 4.13711C15.0208 3.94544 14.7833 3.84961 14.5 3.84961ZM9.5 4.84961C9.5 5.13294 9.59583 5.37044 9.7875 5.56211C9.97917 5.75378 10.2167 5.84961 10.5 5.84961C10.7833 5.84961 11.0208 5.75378 11.2125 5.56211C11.4042 5.37044 11.5 5.13294 11.5 4.84961C11.5 4.56628 11.4042 4.32878 11.2125 4.13711C11.0208 3.94544 10.7833 3.84961 10.5 3.84961C10.2167 3.84961 9.97917 3.94544 9.7875 4.13711C9.59583 4.32878 9.5 4.56628 9.5 4.84961ZM4.5 7.84961V9.84961H11.5V7.84961H4.5ZM11.5 20.8496V11.8496H6.5V20.8496H11.5ZM13.5 20.8496H18.5V11.8496H13.5V20.8496ZM20.5 9.84961V7.84961H13.5V9.84961H20.5Z" fill="#135589"/>
</svg>
