<svg width="24" height="25" viewBox="0 0 24 25" fill="none" xmlns="http://www.w3.org/2000/svg">
<rect y="0.849609" width="24" height="24" rx="5" fill="#135589"/>
<path d="M3 21.8496V19.8496H21V21.8496H3ZM5.425 12.2496C4.94167 11.7996 4.5875 11.2663 4.3625 10.6496C4.1375 10.0329 4.025 9.39961 4.025 8.74961C4.025 7.39961 4.4875 6.24544 5.4125 5.28711C6.3375 4.32878 7.46667 3.84961 8.8 3.84961C9.4 3.84961 9.975 3.95794 10.525 4.17461C11.075 4.39128 11.5667 4.70794 12 5.12461C12.4333 4.70794 12.925 4.39128 13.475 4.17461C14.025 3.95794 14.6 3.84961 15.2 3.84961C16.55 3.84961 17.6875 4.33294 18.6125 5.29961C19.5375 6.26628 20 7.42461 20 8.77461C20 9.42461 19.8792 10.0454 19.6375 10.6371C19.3958 11.2288 19.05 11.7579 18.6 12.2246L13.375 17.2996C13.1917 17.4829 12.9833 17.6204 12.75 17.7121C12.5167 17.8038 12.2667 17.8496 12 17.8496C11.7333 17.8496 11.4833 17.8038 11.25 17.7121C11.0167 17.6204 10.8083 17.4829 10.625 17.2996L5.425 12.2496ZM6.825 10.8496L12 15.8496L17.2 10.8246C17.4833 10.5579 17.6917 10.2454 17.825 9.88711C17.9583 9.52878 18.025 9.15794 18.025 8.77461C18.025 7.97461 17.7542 7.29128 17.2125 6.72461C16.6708 6.15794 16.0083 5.87461 15.225 5.87461C14.8583 5.87461 14.5042 5.94544 14.1625 6.08711C13.8208 6.22878 13.525 6.43294 13.275 6.69961L12.725 7.24961C12.625 7.34961 12.5125 7.42461 12.3875 7.47461C12.2625 7.52461 12.1333 7.54961 12 7.54961C11.8667 7.54961 11.7417 7.52461 11.625 7.47461C11.5083 7.42461 11.4 7.34961 11.3 7.24961L10.75 6.69961C10.4833 6.43294 10.1875 6.22461 9.8625 6.07461C9.5375 5.92461 9.18333 5.84961 8.8 5.84961C8.01667 5.84961 7.35417 6.13294 6.8125 6.69961C6.27083 7.26628 6 7.94961 6 8.74961C6 9.13294 6.06667 9.50794 6.2 9.87461C6.33333 10.2413 6.54167 10.5663 6.825 10.8496Z" fill="#EBDE53"/>
</svg>
