<svg width="24" height="25" viewBox="0 0 24 25" fill="none" xmlns="http://www.w3.org/2000/svg">
<rect y="0.849609" width="24" height="24" rx="5" fill="#135589"/>
<path d="M18 16.8246V8.64961C16.8333 8.73294 15.6833 8.63711 14.55 8.36211C13.4167 8.08711 12.3583 7.65794 11.375 7.07461C10.6917 6.67461 10.0208 6.37461 9.3625 6.17461C8.70417 5.97461 8.03333 5.87461 7.35 5.87461C7.11667 5.87461 6.8875 5.88711 6.6625 5.91211C6.4375 5.93711 6.21667 5.96628 6 5.99961V14.1996C6.25 14.1663 6.4875 14.1454 6.7125 14.1371C6.9375 14.1288 7.16667 14.1246 7.4 14.1246C8.43333 14.1246 9.44583 14.2579 10.4375 14.5246C11.4292 14.7913 12.3417 15.1746 13.175 15.6746C13.9417 16.1246 14.725 16.4496 15.525 16.6496C16.325 16.8496 17.15 16.9079 18 16.8246ZM12 13.8996C12.7 13.8996 13.2917 13.6579 13.775 13.1746C14.2583 12.6913 14.5 12.0996 14.5 11.3996C14.5 10.6996 14.2583 10.1079 13.775 9.62461C13.2917 9.14128 12.7 8.89961 12 8.89961C11.3 8.89961 10.7083 9.14128 10.225 9.62461C9.74167 10.1079 9.5 10.6996 9.5 11.3996C9.5 12.0996 9.74167 12.6913 10.225 13.1746C10.7083 13.6579 11.3 13.8996 12 13.8996ZM4 21.8496V4.37461C4.56667 4.24128 5.13333 4.12044 5.7 4.01211C6.26667 3.90378 6.85 3.84961 7.45 3.84961C8.26667 3.84961 9.08333 3.97044 9.9 4.21211C10.7167 4.45378 11.5083 4.79961 12.275 5.24961C13.0583 5.71628 13.8708 6.07044 14.7125 6.31211C15.5542 6.55378 16.4167 6.67461 17.3 6.67461C17.75 6.67461 18.2 6.64961 18.65 6.59961C19.1 6.54961 19.55 6.50794 20 6.47461V18.6496C19.55 18.6829 19.0958 18.7246 18.6375 18.7746C18.1792 18.8246 17.7333 18.8496 17.3 18.8496C16.4167 18.8496 15.5583 18.7329 14.725 18.4996C13.8917 18.2663 13.1 17.9246 12.35 17.4746C11.6 17.0246 10.8125 16.6829 9.9875 16.4496C9.1625 16.2163 8.325 16.0996 7.475 16.0996C7.24167 16.0996 7.00833 16.1121 6.775 16.1371C6.54167 16.1621 6.28333 16.1913 6 16.2246V21.8496H4Z" fill="#EBDE53"/>
</svg>
