<svg width="25" height="25" viewBox="0 0 25 25" fill="none" xmlns="http://www.w3.org/2000/svg">
<rect x="0.5" y="0.849609" width="24" height="24" rx="5" fill="#135589"/>
<path d="M12.5 18.3496C13.75 18.3496 14.8125 17.9121 15.6875 17.0371C16.5625 16.1621 17 15.0996 17 13.8496C17 12.5996 16.5625 11.5371 15.6875 10.6621C14.8125 9.78711 13.75 9.34961 12.5 9.34961C11.25 9.34961 10.1875 9.78711 9.3125 10.6621C8.4375 11.5371 8 12.5996 8 13.8496C8 15.0996 8.4375 16.1621 9.3125 17.0371C10.1875 17.9121 11.25 18.3496 12.5 18.3496ZM12.5 16.3496C11.8 16.3496 11.2083 16.1079 10.725 15.6246C10.2417 15.1413 10 14.5496 10 13.8496C10 13.1496 10.2417 12.5579 10.725 12.0746C11.2083 11.5913 11.8 11.3496 12.5 11.3496C13.2 11.3496 13.7917 11.5913 14.275 12.0746C14.7583 12.5579 15 13.1496 15 13.8496C15 14.5496 14.7583 15.1413 14.275 15.6246C13.7917 16.1079 13.2 16.3496 12.5 16.3496ZM4.5 21.8496C3.95 21.8496 3.47917 21.6538 3.0875 21.2621C2.69583 20.8704 2.5 20.3996 2.5 19.8496V7.84961C2.5 7.29961 2.69583 6.82878 3.0875 6.43711C3.47917 6.04544 3.95 5.84961 4.5 5.84961H7.65L9.5 3.84961H15.5L17.35 5.84961H20.5C21.05 5.84961 21.5208 6.04544 21.9125 6.43711C22.3042 6.82878 22.5 7.29961 22.5 7.84961V19.8496C22.5 20.3996 22.3042 20.8704 21.9125 21.2621C21.5208 21.6538 21.05 21.8496 20.5 21.8496H4.5ZM4.5 19.8496H20.5V7.84961H16.45L14.625 5.84961H10.375L8.55 7.84961H4.5V19.8496Z" fill="#EBDE53"/>
</svg>
