<svg width="25" height="25" viewBox="0 0 25 25" fill="none" xmlns="http://www.w3.org/2000/svg">
<path d="M12.5 12.8496C13.05 12.8496 13.5208 12.6538 13.9125 12.2621C14.3042 11.8704 14.5 11.3996 14.5 10.8496C14.5 10.2996 14.3042 9.82878 13.9125 9.43711C13.5208 9.04544 13.05 8.84961 12.5 8.84961C11.95 8.84961 11.4792 9.04544 11.0875 9.43711C10.6958 9.82878 10.5 10.2996 10.5 10.8496C10.5 11.3996 10.6958 11.8704 11.0875 12.2621C11.4792 12.6538 11.95 12.8496 12.5 12.8496ZM12.5 20.1996C14.5333 18.3329 16.0417 16.6371 17.025 15.1121C18.0083 13.5871 18.5 12.2329 18.5 11.0496C18.5 9.23294 17.9208 7.74544 16.7625 6.58711C15.6042 5.42878 14.1833 4.84961 12.5 4.84961C10.8167 4.84961 9.39583 5.42878 8.2375 6.58711C7.07917 7.74544 6.5 9.23294 6.5 11.0496C6.5 12.2329 6.99167 13.5871 7.975 15.1121C8.95833 16.6371 10.4667 18.3329 12.5 20.1996ZM12.5 22.8496C9.81667 20.5663 7.8125 18.4454 6.4875 16.4871C5.1625 14.5288 4.5 12.7163 4.5 11.0496C4.5 8.54961 5.30417 6.55794 6.9125 5.07461C8.52083 3.59128 10.3833 2.84961 12.5 2.84961C14.6167 2.84961 16.4792 3.59128 18.0875 5.07461C19.6958 6.55794 20.5 8.54961 20.5 11.0496C20.5 12.7163 19.8375 14.5288 18.5125 16.4871C17.1875 18.4454 15.1833 20.5663 12.5 22.8496Z" fill="#135589"/>
</svg>
